<svg xmlns="http://www.w3.org/2000/svg" xmlns:xlink="http://www.w3.org/1999/xlink" width="1080" zoomAndPan="magnify" viewBox="0 0 810 809.999993" height="1080" preserveAspectRatio="xMidYMid meet" version="1.0"><defs><g/><clipPath id="f0a103de3b"><path d="M 154 81 L 656 81 L 656 583.5 L 154 583.5 Z M 154 81 " clip-rule="nonzero"/></clipPath><clipPath id="93732215e1"><path d="M 153.648438 81 L 656.148438 81 L 656.148438 583.5 L 153.648438 583.5 Z M 153.648438 81 " clip-rule="nonzero"/></clipPath><clipPath id="3ba0bbfbd3"><path d="M 405 401.449219 L 631.300781 401.449219 L 631.300781 437.523438 L 405 437.523438 Z M 405 401.449219 " clip-rule="nonzero"/></clipPath><clipPath id="962b518f4c"><path d="M 405.007812 401.449219 L 631.28125 401.449219 L 631.28125 437.449219 L 405.007812 437.449219 Z M 405.007812 401.449219 " clip-rule="nonzero"/></clipPath><clipPath id="80f32c9559"><path d="M 405 296.277344 L 648 296.277344 L 648 332.351562 L 405 332.351562 Z M 405 296.277344 " clip-rule="nonzero"/></clipPath><clipPath id="15fe66b10c"><path d="M 405.011719 296.277344 L 647.988281 296.277344 L 647.988281 332.277344 L 405.011719 332.277344 Z M 405.011719 296.277344 " clip-rule="nonzero"/></clipPath><clipPath id="a04d9cce0e"><path d="M 405 93.019531 L 441.074219 93.019531 L 441.074219 314.308594 L 405 314.308594 Z M 405 93.019531 " clip-rule="nonzero"/></clipPath><clipPath id="e1564a3417"><path d="M 405 93.058594 L 441 93.058594 L 441 314.300781 L 405 314.300781 Z M 405 93.058594 " clip-rule="nonzero"/></clipPath><clipPath id="c0d8ed239b"><path d="M 405 242 L 504 242 L 504 332 L 405 332 Z M 405 242 " clip-rule="nonzero"/></clipPath><clipPath id="4e39006dad"><path d="M 492.082031 332.339844 L 404.847656 262.835938 L 439.261719 219.636719 L 526.5 289.144531 Z M 492.082031 332.339844 " clip-rule="nonzero"/></clipPath><clipPath id="22f7b360fd"><path d="M 495.453125 268.515625 C 492.195312 263.441406 487.914062 258.402344 482.933594 254.433594 C 477.953125 250.464844 472.476562 247.5 466.851562 245.496094 C 466.71875 245.46875 466.625 245.394531 466.492188 245.367188 C 445.066406 238.222656 420.070312 244.523438 406.035156 261.65625 L 405.515625 262.304688 C 405.378906 262.476562 405.316406 262.699219 405.339844 262.917969 C 405.367188 263.136719 405.476562 263.335938 405.648438 263.472656 L 491.433594 331.820312 C 491.792969 332.105469 492.316406 332.046875 492.601562 331.691406 L 493.117188 331.039062 C 506.757812 313.4375 507.503906 287.816406 495.453125 268.515625 Z M 495.453125 268.515625 " clip-rule="nonzero"/></clipPath><clipPath id="cacd3002e6"><path d="M 405 242 L 504 242 L 504 332 L 405 332 Z M 405 242 " clip-rule="nonzero"/></clipPath><clipPath id="3d0b8c3533"><path d="M 492.082031 332.339844 L 405.269531 263.171875 L 439.851562 219.761719 L 526.667969 288.933594 Z M 492.082031 332.339844 " clip-rule="nonzero"/></clipPath><clipPath id="fef6c8d5f3"><path d="M 492.074219 332.332031 L 405.011719 262.964844 L 439.695312 219.429688 L 526.761719 288.800781 Z M 492.074219 332.332031 " clip-rule="nonzero"/></clipPath><clipPath id="85752d07cb"><path d="M 495.445312 268.523438 C 492.191406 263.449219 487.910156 258.410156 482.929688 254.441406 C 477.949219 250.472656 472.476562 247.511719 466.847656 245.507812 C 466.71875 245.480469 466.625 245.40625 466.492188 245.378906 C 445.066406 238.234375 420.078125 244.535156 406.046875 261.664062 L 405.527344 262.316406 C 405.390625 262.488281 405.328125 262.707031 405.351562 262.925781 C 405.375 263.144531 405.488281 263.34375 405.660156 263.480469 L 491.425781 331.816406 C 491.785156 332.101562 492.308594 332.042969 492.59375 331.683594 L 493.109375 331.035156 C 506.75 313.4375 507.496094 287.820312 495.445312 268.523438 Z M 495.445312 268.523438 " clip-rule="nonzero"/></clipPath><clipPath id="32ea135932"><path d="M 423.039062 250.015625 L 487.335938 250.015625 L 487.335938 314.3125 L 423.039062 314.3125 Z M 423.039062 250.015625 " clip-rule="nonzero"/></clipPath><clipPath id="c0e7f719f1"><path d="M 455.1875 250.015625 C 437.429688 250.015625 423.039062 264.410156 423.039062 282.164062 C 423.039062 299.917969 437.429688 314.3125 455.1875 314.3125 C 472.941406 314.3125 487.335938 299.917969 487.335938 282.164062 C 487.335938 264.410156 472.941406 250.015625 455.1875 250.015625 Z M 455.1875 250.015625 " clip-rule="nonzero"/></clipPath><clipPath id="ca38edf879"><path d="M 129.433594 650.253906 L 187.46875 650.253906 L 187.46875 655.214844 L 129.433594 655.214844 Z M 129.433594 650.253906 " clip-rule="nonzero"/></clipPath><clipPath id="79599964ca"><path d="M 656.351562 650.253906 L 714.386719 650.253906 L 714.386719 655.214844 L 656.351562 655.214844 Z M 656.351562 650.253906 " clip-rule="nonzero"/></clipPath><clipPath id="c3ea37c586"><path d="M 158.214844 233.628906 L 336.941406 233.628906 L 336.941406 377.058594 L 158.214844 377.058594 Z M 158.214844 233.628906 " clip-rule="nonzero"/></clipPath><clipPath id="e98d5b9409"><path d="M 164.148438 281.464844 C 160.707031 288.820312 158.449219 297.179688 158.449219 305.382812 C 158.449219 313.585938 160.382812 321.484375 163.828125 328.757812 C 163.933594 328.914062 163.933594 329.066406 164.042969 329.222656 C 177.8125 356.546875 214.167969 376.671875 255.226562 377.058594 L 336.941406 377.058594 L 336.941406 233.628906 L 255.289062 233.628906 C 213.953125 234.015625 177.59375 253.832031 164.148438 281.464844 Z M 164.148438 281.464844 " clip-rule="nonzero"/></clipPath><clipPath id="f3431535b3"><path d="M 158.441406 233.632812 L 336.941406 233.632812 L 336.941406 376.878906 L 158.441406 376.878906 Z M 158.441406 233.632812 " clip-rule="nonzero"/></clipPath><clipPath id="b56167cdc9"><path d="M 164.152344 281.464844 C 160.710938 288.816406 158.453125 297.175781 158.453125 305.382812 C 158.453125 313.585938 160.386719 321.480469 163.832031 328.757812 C 163.9375 328.914062 163.9375 329.066406 164.046875 329.222656 C 177.8125 356.542969 214.171875 376.667969 255.226562 377.054688 L 336.941406 377.054688 L 336.941406 233.632812 L 255.289062 233.632812 C 213.957031 234.019531 177.597656 253.832031 164.152344 281.464844 Z M 164.152344 281.464844 " clip-rule="nonzero"/></clipPath><clipPath id="cdda98c347"><path d="M 167.433594 332.351562 L 308.371094 332.351562 L 308.371094 377.058594 L 167.433594 377.058594 Z M 167.433594 332.351562 " clip-rule="nonzero"/></clipPath><clipPath id="551a5f9501"><path d="M 172.683594 332.351562 L 303.0625 332.351562 C 305.960938 332.351562 308.3125 334.699219 308.3125 337.601562 L 308.3125 371.808594 C 308.3125 374.707031 305.960938 377.058594 303.0625 377.058594 L 172.683594 377.058594 C 169.785156 377.058594 167.433594 374.707031 167.433594 371.808594 L 167.433594 337.601562 C 167.433594 334.699219 169.785156 332.351562 172.683594 332.351562 Z M 172.683594 332.351562 " clip-rule="nonzero"/></clipPath><clipPath id="801545aae9"><path d="M 177.257812 233.632812 L 318.195312 233.632812 L 318.195312 278.339844 L 177.257812 278.339844 Z M 177.257812 233.632812 " clip-rule="nonzero"/></clipPath><clipPath id="4d06590d37"><path d="M 182.507812 233.632812 L 312.886719 233.632812 C 315.785156 233.632812 318.136719 235.980469 318.136719 238.882812 L 318.136719 273.089844 C 318.136719 275.988281 315.785156 278.339844 312.886719 278.339844 L 182.507812 278.339844 C 179.609375 278.339844 177.257812 275.988281 177.257812 273.089844 L 177.257812 238.882812 C 177.257812 235.980469 179.609375 233.632812 182.507812 233.632812 Z M 182.507812 233.632812 " clip-rule="nonzero"/></clipPath></defs><g clip-path="url(#f0a103de3b)"><path fill="#d88c27" d="M 655.847656 332.347656 C 655.847656 336.453125 655.746094 340.558594 655.542969 344.65625 C 655.34375 348.757812 655.042969 352.851562 654.640625 356.9375 C 654.238281 361.023438 653.734375 365.097656 653.132812 369.15625 C 652.53125 373.21875 651.828125 377.261719 651.027344 381.289062 C 650.226562 385.3125 649.328125 389.316406 648.328125 393.300781 C 647.332031 397.28125 646.238281 401.238281 645.046875 405.167969 C 643.855469 409.09375 642.566406 412.992188 641.183594 416.859375 C 639.800781 420.722656 638.324219 424.550781 636.753906 428.34375 C 635.179688 432.136719 633.519531 435.890625 631.761719 439.601562 C 630.007812 443.3125 628.164062 446.976562 626.226562 450.597656 C 624.292969 454.21875 622.269531 457.789062 620.160156 461.3125 C 618.046875 464.832031 615.851562 468.300781 613.570312 471.714844 C 611.289062 475.125 608.925781 478.480469 606.480469 481.78125 C 604.035156 485.078125 601.511719 488.3125 598.90625 491.484375 C 596.300781 494.660156 593.621094 497.765625 590.863281 500.808594 C 588.109375 503.851562 585.277344 506.824219 582.375 509.726562 C 579.472656 512.628906 576.5 515.457031 573.457031 518.214844 C 570.417969 520.972656 567.308594 523.652344 564.136719 526.257812 C 560.960938 528.863281 557.726562 531.386719 554.429688 533.832031 C 551.132812 536.277344 547.777344 538.640625 544.363281 540.921875 C 540.949219 543.203125 537.480469 545.398438 533.960938 547.507812 C 530.4375 549.621094 526.867188 551.640625 523.246094 553.578125 C 519.628906 555.511719 515.960938 557.359375 512.25 559.113281 C 508.539062 560.867188 504.789062 562.53125 500.996094 564.101562 C 497.203125 565.671875 493.371094 567.152344 489.507812 568.535156 C 485.640625 569.917969 481.746094 571.203125 477.816406 572.394531 C 473.886719 573.585938 469.933594 574.683594 465.949219 575.679688 C 461.96875 576.675781 457.964844 577.578125 453.9375 578.378906 C 449.910156 579.179688 445.867188 579.878906 441.804688 580.484375 C 437.746094 581.085938 433.671875 581.585938 429.585938 581.988281 C 425.5 582.390625 421.40625 582.695312 417.308594 582.894531 C 413.207031 583.097656 409.105469 583.199219 405 583.199219 C 400.894531 583.199219 396.789062 583.097656 392.691406 582.894531 C 388.589844 582.695312 384.496094 582.390625 380.410156 581.988281 C 376.324219 581.585938 372.253906 581.085938 368.191406 580.480469 C 364.132812 579.878906 360.085938 579.179688 356.0625 578.378906 C 352.035156 577.578125 348.03125 576.675781 344.046875 575.679688 C 340.066406 574.683594 336.109375 573.585938 332.183594 572.394531 C 328.253906 571.203125 324.355469 569.917969 320.492188 568.535156 C 316.625 567.152344 312.796875 565.671875 309.003906 564.101562 C 305.210938 562.53125 301.457031 560.867188 297.746094 559.113281 C 294.035156 557.359375 290.371094 555.511719 286.75 553.578125 C 283.128906 551.640625 279.558594 549.621094 276.039062 547.507812 C 272.515625 545.398438 269.050781 543.203125 265.636719 540.921875 C 262.222656 538.640625 258.867188 536.277344 255.570312 533.832031 C 252.273438 531.386719 249.035156 528.863281 245.863281 526.257812 C 242.6875 523.652344 239.582031 520.972656 236.539062 518.214844 C 233.5 515.457031 230.527344 512.628906 227.621094 509.726562 C 224.71875 506.824219 221.890625 503.851562 219.132812 500.808594 C 216.375 497.765625 213.695312 494.660156 211.089844 491.484375 C 208.488281 488.3125 205.960938 485.078125 203.515625 481.78125 C 201.070312 478.480469 198.707031 475.125 196.425781 471.714844 C 194.144531 468.300781 191.949219 464.832031 189.839844 461.3125 C 187.730469 457.789062 185.707031 454.21875 183.769531 450.597656 C 181.835938 446.976562 179.992188 443.3125 178.234375 439.601562 C 176.480469 435.890625 174.816406 432.136719 173.246094 428.34375 C 171.675781 424.550781 170.199219 420.722656 168.816406 416.859375 C 167.433594 412.992188 166.144531 409.09375 164.953125 405.167969 C 163.761719 401.238281 162.667969 397.28125 161.667969 393.300781 C 160.671875 389.316406 159.773438 385.3125 158.972656 381.289062 C 158.171875 377.261719 157.46875 373.21875 156.867188 369.15625 C 156.265625 365.097656 155.761719 361.023438 155.359375 356.9375 C 154.957031 352.851562 154.65625 348.757812 154.453125 344.65625 C 154.25 340.558594 154.152344 336.453125 154.152344 332.347656 C 154.152344 328.246094 154.25 324.140625 154.453125 320.042969 C 154.65625 315.941406 154.957031 311.847656 155.359375 307.761719 C 155.761719 303.675781 156.265625 299.601562 156.867188 295.542969 C 157.46875 291.480469 158.171875 287.4375 158.972656 283.410156 C 159.773438 279.386719 160.671875 275.378906 161.667969 271.398438 C 162.667969 267.417969 163.761719 263.460938 164.953125 259.53125 C 166.144531 255.605469 167.433594 251.707031 168.816406 247.839844 C 170.199219 243.976562 171.675781 240.148438 173.246094 236.355469 C 174.816406 232.5625 176.480469 228.808594 178.234375 225.097656 C 179.992188 221.386719 181.835938 217.722656 183.769531 214.101562 C 185.707031 210.480469 187.730469 206.910156 189.839844 203.386719 C 191.949219 199.867188 194.144531 196.398438 196.425781 192.984375 C 198.707031 189.574219 201.070312 186.21875 203.515625 182.917969 C 205.960938 179.621094 208.488281 176.386719 211.089844 173.214844 C 213.695312 170.039062 216.375 166.933594 219.132812 163.890625 C 221.890625 160.847656 224.71875 157.875 227.621094 154.972656 C 230.527344 152.070312 233.5 149.242188 236.539062 146.484375 C 239.582031 143.726562 242.6875 141.046875 245.863281 138.441406 C 249.035156 135.835938 252.273438 133.3125 255.570312 130.867188 C 258.867188 128.421875 262.222656 126.058594 265.636719 123.777344 C 269.050781 121.496094 272.515625 119.300781 276.039062 117.191406 C 279.558594 115.078125 283.128906 113.058594 286.75 111.121094 C 290.371094 109.1875 294.035156 107.339844 297.746094 105.585938 C 301.457031 103.832031 305.210938 102.167969 309.003906 100.597656 C 312.796875 99.023438 316.625 97.546875 320.492188 96.164062 C 324.355469 94.78125 328.253906 93.496094 332.183594 92.304688 C 336.109375 91.113281 340.066406 90.015625 344.046875 89.019531 C 348.03125 88.023438 352.035156 87.121094 356.0625 86.320312 C 360.085938 85.519531 364.132812 84.820312 368.191406 84.214844 C 372.253906 83.613281 376.324219 83.113281 380.410156 82.710938 C 384.496094 82.308594 388.589844 82.003906 392.691406 81.804688 C 396.789062 81.601562 400.894531 81.5 405 81.5 C 409.105469 81.5 413.207031 81.601562 417.308594 81.804688 C 421.40625 82.003906 425.5 82.308594 429.585938 82.710938 C 433.671875 83.113281 437.746094 83.613281 441.804688 84.214844 C 445.867188 84.820312 449.910156 85.519531 453.9375 86.320312 C 457.964844 87.121094 461.96875 88.023438 465.949219 89.019531 C 469.933594 90.015625 473.886719 91.113281 477.816406 92.304688 C 481.746094 93.496094 485.640625 94.78125 489.507812 96.164062 C 493.371094 97.546875 497.203125 99.023438 500.996094 100.597656 C 504.789062 102.167969 508.539062 103.832031 512.25 105.585938 C 515.960938 107.339844 519.628906 109.1875 523.246094 111.121094 C 526.867188 113.058594 530.4375 115.078125 533.960938 117.191406 C 537.480469 119.300781 540.949219 121.496094 544.363281 123.777344 C 547.777344 126.058594 551.132812 128.421875 554.429688 130.867188 C 557.726562 133.3125 560.960938 135.835938 564.136719 138.441406 C 567.308594 141.046875 570.417969 143.726562 573.457031 146.484375 C 576.5 149.242188 579.472656 152.070312 582.375 154.972656 C 585.277344 157.875 588.109375 160.847656 590.863281 163.890625 C 593.621094 166.933594 596.300781 170.039062 598.90625 173.214844 C 601.511719 176.386719 604.035156 179.621094 606.480469 182.917969 C 608.925781 186.21875 611.289062 189.574219 613.570312 192.984375 C 615.851562 196.398438 618.046875 199.867188 620.160156 203.386719 C 622.269531 206.910156 624.292969 210.480469 626.226562 214.101562 C 628.164062 217.722656 630.007812 221.386719 631.761719 225.097656 C 633.519531 228.808594 635.179688 232.5625 636.753906 236.355469 C 638.324219 240.148438 639.800781 243.976562 641.183594 247.839844 C 642.566406 251.707031 643.855469 255.605469 645.046875 259.53125 C 646.238281 263.460938 647.332031 267.417969 648.328125 271.398438 C 649.328125 275.378906 650.226562 279.386719 651.027344 283.410156 C 651.828125 287.4375 652.53125 291.480469 653.132812 295.542969 C 653.734375 299.601562 654.238281 303.675781 654.640625 307.761719 C 655.042969 311.847656 655.34375 315.941406 655.542969 320.042969 C 655.746094 324.140625 655.847656 328.246094 655.847656 332.347656 Z M 655.847656 332.347656 " fill-opacity="1" fill-rule="nonzero"/></g><g clip-path="url(#93732215e1)"><path fill="#ffffff" d="M 405 583.699219 C 337.871094 583.699219 274.757812 557.511719 227.296875 510.050781 C 179.839844 462.589844 153.648438 399.476562 153.648438 332.347656 C 153.648438 265.222656 179.839844 202.109375 227.296875 154.648438 C 274.757812 107.1875 337.871094 81 405 81 C 472.125 81 535.238281 107.1875 582.699219 154.648438 C 630.160156 202.109375 656.347656 265.222656 656.347656 332.347656 C 656.347656 399.476562 630.160156 462.589844 582.699219 510.050781 C 535.238281 557.511719 472.125 583.699219 405 583.699219 Z M 405 96.050781 C 341.886719 96.050781 282.585938 120.632812 237.933594 165.285156 C 193.285156 209.9375 168.699219 269.234375 168.699219 332.347656 C 168.699219 395.464844 193.285156 454.761719 237.933594 499.414062 C 282.585938 544.066406 341.886719 568.648438 405 568.648438 C 468.113281 568.648438 527.414062 544.066406 572.0625 499.414062 C 616.714844 454.761719 641.296875 395.464844 641.296875 332.347656 C 641.296875 269.234375 616.714844 209.9375 572.0625 165.285156 C 527.414062 120.632812 468.113281 96.050781 405 96.050781 Z M 405 96.050781 " fill-opacity="1" fill-rule="nonzero"/></g><g clip-path="url(#3ba0bbfbd3)"><path fill="#ffffff" d="M 405 401.449219 L 631.308594 401.449219 L 631.308594 437.523438 L 405 437.523438 Z M 405 401.449219 " fill-opacity="1" fill-rule="nonzero"/></g><g clip-path="url(#962b518f4c)"><path stroke-linecap="butt" transform="matrix(0.75, 0, 0, 0.75, 405.007303, 401.451036)" fill="none" stroke-linejoin="miter" d="M 0.000679167 -0.00242274 L 301.698611 -0.00242274 L 301.698611 48.09133 L 0.000679167 48.09133 Z M 0.000679167 -0.00242274 " stroke="#ffffff" stroke-width="20" stroke-opacity="1" stroke-miterlimit="4"/></g><g clip-path="url(#80f32c9559)"><path fill="#ffffff" d="M 405 296.277344 L 647.9375 296.277344 L 647.9375 332.351562 L 405 332.351562 Z M 405 296.277344 " fill-opacity="1" fill-rule="nonzero"/></g><g clip-path="url(#15fe66b10c)"><path stroke-linecap="butt" transform="matrix(0.75, 0, 0, 0.75, 405.013159, 296.276314)" fill="none" stroke-linejoin="miter" d="M -0.0019205 0.00137314 L 323.966846 0.00137314 L 323.966846 48.095126 L -0.0019205 48.095126 Z M -0.0019205 0.00137314 " stroke="#ffffff" stroke-width="20" stroke-opacity="1" stroke-miterlimit="4"/></g><g clip-path="url(#a04d9cce0e)"><path fill="#ffffff" d="M 405 314.308594 L 405 93.074219 L 441.074219 93.074219 L 441.074219 314.308594 Z M 405 314.308594 " fill-opacity="1" fill-rule="nonzero"/></g><g clip-path="url(#e1564a3417)"><path stroke-linecap="butt" transform="matrix(0, -0.75, 0.75, 0, 405.000151, 314.299456)" fill="none" stroke-linejoin="miter" d="M -0.00176675 -0.0002015 L 295.019081 -0.0002015 L 295.019081 48.093551 L -0.00176675 48.093551 Z M -0.00176675 -0.0002015 " stroke="#ffffff" stroke-width="20" stroke-opacity="1" stroke-miterlimit="4"/></g><g clip-path="url(#c0d8ed239b)"><g clip-path="url(#4e39006dad)"><g clip-path="url(#22f7b360fd)"><path fill="#ffffff" d="M 492.082031 332.339844 L 405.015625 262.96875 L 439.433594 219.773438 L 526.5 289.144531 Z M 492.082031 332.339844 " fill-opacity="1" fill-rule="nonzero"/></g></g></g><g clip-path="url(#cacd3002e6)"><g clip-path="url(#3d0b8c3533)"><g clip-path="url(#fef6c8d5f3)"><g clip-path="url(#85752d07cb)"><path stroke-linecap="butt" transform="matrix(-0.586584, -0.467354, 0.467354, -0.586584, 492.076083, 332.333149)" fill="none" stroke-linejoin="miter" d="M 49.502896 69.341094 C 57.112042 71.929057 65.763308 73.626788 74.25446 73.627434 C 82.745612 73.628079 90.912682 72.168828 98.447542 69.581748 C 98.604686 69.503161 98.764114 69.502665 98.925332 69.420832 C 127.204515 59.069623 148.027673 31.737524 148.428106 2.21735 L 148.427881 1.105422 C 148.427651 0.812596 148.311078 0.532551 148.104888 0.323909 C 147.898699 0.115266 147.615046 0.00163714 147.322219 0.00186725 L 1.107481 -0.00143654 C 0.495797 -0.000214755 -0.00136958 0.495786 -0.000147789 1.107471 L 0.000905533 2.212079 C 0.397284 31.896522 20.903319 59.230418 49.502896 69.341094 Z M 49.502896 69.341094 " stroke="#ffffff" stroke-width="20" stroke-opacity="1" stroke-miterlimit="4"/></g></g></g></g><g clip-path="url(#32ea135932)"><g clip-path="url(#c0e7f719f1)"><path fill="#ffffff" d="M 423.039062 250.015625 L 487.335938 250.015625 L 487.335938 314.3125 L 423.039062 314.3125 Z M 423.039062 250.015625 " fill-opacity="1" fill-rule="nonzero"/></g></g><g clip-path="url(#ca38edf879)"><path fill="#d88c27" d="M 129.433594 650.253906 L 187.460938 650.253906 L 187.460938 655.214844 L 129.433594 655.214844 Z M 129.433594 650.253906 " fill-opacity="1" fill-rule="nonzero"/></g><g fill="#d88c27" fill-opacity="1"><g transform="translate(215.515716, 673.964698)"><g><path d="M 15.859375 -53.90625 C 20.273438 -53.90625 23.46875 -52.875 25.4375 -50.8125 C 27.414062 -48.757812 28.40625 -45.65625 28.40625 -41.5 L 28.40625 -39.578125 C 28.40625 -36.804688 27.96875 -34.519531 27.09375 -32.71875 C 26.226562 -30.925781 24.847656 -29.59375 22.953125 -28.71875 C 25.253906 -27.84375 26.878906 -26.414062 27.828125 -24.4375 C 28.785156 -22.46875 29.265625 -20.046875 29.265625 -17.171875 L 29.265625 -12.78125 C 29.265625 -8.625 28.1875 -5.453125 26.03125 -3.265625 C 23.875 -1.085938 20.664062 0 16.40625 0 L 3.078125 0 L 3.078125 -53.90625 Z M 11.546875 -24.25 L 11.546875 -7.703125 L 16.40625 -7.703125 C 17.84375 -7.703125 18.929688 -8.085938 19.671875 -8.859375 C 20.421875 -9.628906 20.796875 -11.015625 20.796875 -13.015625 L 20.796875 -17.703125 C 20.796875 -20.222656 20.367188 -21.941406 19.515625 -22.859375 C 18.671875 -23.785156 17.273438 -24.25 15.328125 -24.25 Z M 11.546875 -46.203125 L 11.546875 -31.953125 L 14.859375 -31.953125 C 16.453125 -31.953125 17.695312 -32.363281 18.59375 -33.1875 C 19.488281 -34.007812 19.9375 -35.5 19.9375 -37.65625 L 19.9375 -40.65625 C 19.9375 -42.601562 19.585938 -44.015625 18.890625 -44.890625 C 18.203125 -45.765625 17.113281 -46.203125 15.625 -46.203125 Z M 11.546875 -46.203125 "/></g></g></g><g fill="#d88c27" fill-opacity="1"><g transform="translate(252.703594, 673.964698)"><g><path d="M 11.546875 -31.1875 L 23.171875 -31.1875 L 23.171875 -23.484375 L 11.546875 -23.484375 L 11.546875 -7.703125 L 26.1875 -7.703125 L 26.1875 0 L 3.078125 0 L 3.078125 -53.90625 L 26.1875 -53.90625 L 26.1875 -46.203125 L 11.546875 -46.203125 Z M 11.546875 -31.1875 "/></g></g></g><g fill="#d88c27" fill-opacity="1"><g transform="translate(286.965766, 673.964698)"><g><path d="M 0.765625 -53.90625 L 26.953125 -53.90625 L 26.953125 -46.203125 L 18.09375 -46.203125 L 18.09375 0 L 9.625 0 L 9.625 -46.203125 L 0.765625 -46.203125 Z M 0.765625 -53.90625 "/></g></g></g><g fill="#d88c27" fill-opacity="1"><g transform="translate(320.612001, 673.964698)"><g><path d="M 0.765625 -53.90625 L 26.953125 -53.90625 L 26.953125 -46.203125 L 18.09375 -46.203125 L 18.09375 0 L 9.625 0 L 9.625 -46.203125 L 0.765625 -46.203125 Z M 0.765625 -53.90625 "/></g></g></g><g fill="#d88c27" fill-opacity="1"><g transform="translate(354.258247, 673.964698)"><g><path d="M 11.546875 -31.1875 L 23.171875 -31.1875 L 23.171875 -23.484375 L 11.546875 -23.484375 L 11.546875 -7.703125 L 26.1875 -7.703125 L 26.1875 0 L 3.078125 0 L 3.078125 -53.90625 L 26.1875 -53.90625 L 26.1875 -46.203125 L 11.546875 -46.203125 Z M 11.546875 -31.1875 "/></g></g></g><g fill="#d88c27" fill-opacity="1"><g transform="translate(388.520415, 673.964698)"><g><path d="M 20.796875 0 C 20.691406 -0.351562 20.585938 -0.6875 20.484375 -1 C 20.378906 -1.3125 20.285156 -1.695312 20.203125 -2.15625 C 20.128906 -2.613281 20.078125 -3.203125 20.046875 -3.921875 C 20.023438 -4.640625 20.015625 -5.539062 20.015625 -6.625 L 20.015625 -15.09375 C 20.015625 -17.601562 19.578125 -19.367188 18.703125 -20.390625 C 17.835938 -21.421875 16.425781 -21.9375 14.46875 -21.9375 L 11.546875 -21.9375 L 11.546875 0 L 3.078125 0 L 3.078125 -53.90625 L 15.859375 -53.90625 C 20.273438 -53.90625 23.46875 -52.875 25.4375 -50.8125 C 27.414062 -48.757812 28.40625 -45.65625 28.40625 -41.5 L 28.40625 -37.265625 C 28.40625 -31.722656 26.5625 -28.078125 22.875 -26.328125 C 25.03125 -25.460938 26.503906 -24.039062 27.296875 -22.0625 C 28.085938 -20.082031 28.484375 -17.679688 28.484375 -14.859375 L 28.484375 -6.546875 C 28.484375 -5.210938 28.535156 -4.046875 28.640625 -3.046875 C 28.742188 -2.046875 29 -1.03125 29.40625 0 Z M 11.546875 -46.203125 L 11.546875 -29.640625 L 14.859375 -29.640625 C 16.453125 -29.640625 17.695312 -30.050781 18.59375 -30.875 C 19.488281 -31.695312 19.9375 -33.1875 19.9375 -35.34375 L 19.9375 -40.65625 C 19.9375 -42.601562 19.585938 -44.015625 18.890625 -44.890625 C 18.203125 -45.765625 17.113281 -46.203125 15.625 -46.203125 Z M 11.546875 -46.203125 "/></g></g></g><g fill="#d88c27" fill-opacity="1"><g transform="translate(425.410241, 673.964698)"><g/></g></g><g fill="#d88c27" fill-opacity="1"><g transform="translate(443.273066, 673.964698)"><g/></g></g><g fill="#d88c27" fill-opacity="1"><g transform="translate(461.140704, 673.964698)"><g><path d="M 3.078125 -53.90625 L 11.546875 -53.90625 L 11.546875 -7.703125 L 25.484375 -7.703125 L 25.484375 0 L 3.078125 0 Z M 3.078125 -53.90625 "/></g></g></g><g fill="#d88c27" fill-opacity="1"><g transform="translate(493.32408, 673.964698)"><g><path d="M 30.484375 0 L 21.9375 0 L 20.484375 -9.78125 L 10.09375 -9.78125 L 8.625 0 L 0.84375 0 L 9.46875 -53.90625 L 21.875 -53.90625 Z M 11.171875 -17.09375 L 19.328125 -17.09375 L 15.25 -44.359375 Z M 11.171875 -17.09375 "/></g></g></g><g fill="#d88c27" fill-opacity="1"><g transform="translate(530.588954, 673.964698)"><g><path d="M 2 -40.96875 C 2 -45.332031 3.035156 -48.679688 5.109375 -51.015625 C 7.191406 -53.347656 10.3125 -54.515625 14.46875 -54.515625 C 18.632812 -54.515625 21.753906 -53.347656 23.828125 -51.015625 C 25.910156 -48.679688 26.953125 -45.332031 26.953125 -40.96875 L 26.953125 -38.890625 L 18.9375 -38.890625 L 18.9375 -41.5 C 18.9375 -43.445312 18.5625 -44.816406 17.8125 -45.609375 C 17.070312 -46.410156 16.035156 -46.8125 14.703125 -46.8125 C 13.367188 -46.8125 12.328125 -46.410156 11.578125 -45.609375 C 10.835938 -44.816406 10.46875 -43.445312 10.46875 -41.5 C 10.46875 -39.65625 10.878906 -38.023438 11.703125 -36.609375 C 12.523438 -35.203125 13.550781 -33.867188 14.78125 -32.609375 C 16.007812 -31.347656 17.328125 -30.085938 18.734375 -28.828125 C 20.148438 -27.578125 21.472656 -26.207031 22.703125 -24.71875 C 23.941406 -23.226562 24.972656 -21.53125 25.796875 -19.625 C 26.617188 -17.726562 27.03125 -15.5 27.03125 -12.9375 C 27.03125 -8.570312 25.960938 -5.222656 23.828125 -2.890625 C 21.703125 -0.554688 18.5625 0.609375 14.40625 0.609375 C 10.238281 0.609375 7.085938 -0.554688 4.953125 -2.890625 C 2.828125 -5.222656 1.765625 -8.570312 1.765625 -12.9375 L 1.765625 -16.625 L 9.78125 -16.625 L 9.78125 -12.390625 C 9.78125 -10.441406 10.175781 -9.082031 10.96875 -8.3125 C 11.769531 -7.539062 12.835938 -7.15625 14.171875 -7.15625 C 15.503906 -7.15625 16.566406 -7.539062 17.359375 -8.3125 C 18.160156 -9.082031 18.5625 -10.441406 18.5625 -12.390625 C 18.5625 -14.242188 18.148438 -15.875 17.328125 -17.28125 C 16.503906 -18.695312 15.472656 -20.03125 14.234375 -21.28125 C 13.003906 -22.539062 11.679688 -23.800781 10.265625 -25.0625 C 8.859375 -26.320312 7.539062 -27.695312 6.3125 -29.1875 C 5.082031 -30.675781 4.054688 -32.367188 3.234375 -34.265625 C 2.410156 -36.160156 2 -38.394531 2 -40.96875 Z M 2 -40.96875 "/></g></g></g><g fill="#d88c27" fill-opacity="1"><g transform="translate(565.313085, 673.964698)"><g><path d="M 11.546875 -31.1875 L 23.171875 -31.1875 L 23.171875 -23.484375 L 11.546875 -23.484375 L 11.546875 -7.703125 L 26.1875 -7.703125 L 26.1875 0 L 3.078125 0 L 3.078125 -53.90625 L 26.1875 -53.90625 L 26.1875 -46.203125 L 11.546875 -46.203125 Z M 11.546875 -31.1875 "/></g></g></g><g fill="#d88c27" fill-opacity="1"><g transform="translate(599.575252, 673.964698)"><g><path d="M 20.796875 0 C 20.691406 -0.351562 20.585938 -0.6875 20.484375 -1 C 20.378906 -1.3125 20.285156 -1.695312 20.203125 -2.15625 C 20.128906 -2.613281 20.078125 -3.203125 20.046875 -3.921875 C 20.023438 -4.640625 20.015625 -5.539062 20.015625 -6.625 L 20.015625 -15.09375 C 20.015625 -17.601562 19.578125 -19.367188 18.703125 -20.390625 C 17.835938 -21.421875 16.425781 -21.9375 14.46875 -21.9375 L 11.546875 -21.9375 L 11.546875 0 L 3.078125 0 L 3.078125 -53.90625 L 15.859375 -53.90625 C 20.273438 -53.90625 23.46875 -52.875 25.4375 -50.8125 C 27.414062 -48.757812 28.40625 -45.65625 28.40625 -41.5 L 28.40625 -37.265625 C 28.40625 -31.722656 26.5625 -28.078125 22.875 -26.328125 C 25.03125 -25.460938 26.503906 -24.039062 27.296875 -22.0625 C 28.085938 -20.082031 28.484375 -17.679688 28.484375 -14.859375 L 28.484375 -6.546875 C 28.484375 -5.210938 28.535156 -4.046875 28.640625 -3.046875 C 28.742188 -2.046875 29 -1.03125 29.40625 0 Z M 11.546875 -46.203125 L 11.546875 -29.640625 L 14.859375 -29.640625 C 16.453125 -29.640625 17.695312 -30.050781 18.59375 -30.875 C 19.488281 -31.695312 19.9375 -33.1875 19.9375 -35.34375 L 19.9375 -40.65625 C 19.9375 -42.601562 19.585938 -44.015625 18.890625 -44.890625 C 18.203125 -45.765625 17.113281 -46.203125 15.625 -46.203125 Z M 11.546875 -46.203125 "/></g></g></g><g clip-path="url(#79599964ca)"><path fill="#d88c27" d="M 656.351562 650.253906 L 714.378906 650.253906 L 714.378906 655.214844 L 656.351562 655.214844 Z M 656.351562 650.253906 " fill-opacity="1" fill-rule="nonzero"/></g><g clip-path="url(#c3ea37c586)"><g clip-path="url(#e98d5b9409)"><path fill="#ffffff" d="M 336.941406 233.628906 L 336.941406 377.058594 L 158.214844 377.058594 L 158.214844 233.628906 Z M 336.941406 233.628906 " fill-opacity="1" fill-rule="nonzero"/></g></g><g clip-path="url(#f3431535b3)"><g clip-path="url(#b56167cdc9)"><path stroke-linecap="butt" transform="matrix(0, 0.75, -0.75, 0, 336.940563, 233.63138)" fill="none" stroke-linejoin="miter" d="M 63.777955 230.384304 C 73.580038 234.972846 84.725872 237.983263 95.668581 237.983263 C 106.606082 237.983263 117.132124 235.405138 126.835249 230.811388 C 127.043583 230.670763 127.246708 230.670763 127.455041 230.524929 C 163.882126 212.170762 190.715461 163.691593 191.231086 108.952007 L 191.231086 -0.00112387 L 0.00190967 -0.00112387 L 0.00190967 108.868673 C 0.517535 163.978051 26.934203 212.45722 63.777955 230.384304 Z M 63.777955 230.384304 " stroke="#ffffff" stroke-width="20" stroke-opacity="1" stroke-miterlimit="4"/></g></g><g clip-path="url(#cdda98c347)"><g clip-path="url(#551a5f9501)"><path fill="#ffffff" d="M 167.433594 332.351562 L 308.371094 332.351562 L 308.371094 377.058594 L 167.433594 377.058594 Z M 167.433594 332.351562 " fill-opacity="1" fill-rule="nonzero"/></g></g><g clip-path="url(#801545aae9)"><g clip-path="url(#4d06590d37)"><path fill="#ffffff" d="M 177.257812 233.632812 L 318.195312 233.632812 L 318.195312 278.339844 L 177.257812 278.339844 Z M 177.257812 233.632812 " fill-opacity="1" fill-rule="nonzero"/></g></g></svg>